# xmcd CD database file
#
# Track frame offsets:
#	150
#	13843
#	34668
#	58825
#	72953
#	108434
#	132858
#	162871
#	179321
#	195293
#
# Disc length: 2959 seconds
#
# Revision: 0
# Processed by: cddbd v1.5.1PL0 Copyright (c) Steve Scherf et al.
# Submitted via: CDex 1.51
#
DISCID=820b8d0a
DTITLE=JOSHEPH MALIK - DIVERSE
DYEAR=1900
DGENRE=Blues
TTITLE0=Melodies
TTITLE1=Soul Blues
TTITLE2=Take It All In And Check It All Out
TTITLE3=As I Rise feat. David 'chimp' Robertson
TTITLE4=Ibotride
TTITLE5=Futuristica (produced By Colin Steele)
TTITLE6=I Don't Want feta. Colin Steele
TTITLE7=Evil Things
TTITLE8=I Am Drifting
TTITLE9=Mother's Son
EXTD=
EXTT0=
EXTT1=
EXTT2=
EXTT3=
EXTT4=
EXTT5=
EXTT6=
EXTT7=
EXTT8=
EXTT9=
PLAYORDER=
